<svg id="SvgjsSvg1001" width="32" height="32" xmlns="http://www.w3.org/2000/svg" version="1.1" xmlns:xlink="http://www.w3.org/1999/xlink" xmlns:svgjs="http://svgjs.com/svgjs"><defs id="SvgjsDefs1002"></defs><g id="SvgjsG1008"><svg xmlns="http://www.w3.org/2000/svg" viewBox="0 0 32 32" width="32" height="32"><path style="font-feature-settings: normal; font-variant: normal; font-variation-settings: normal; inline-size: 0px; isolation: auto; mix-blend-mode: normal; shape-margin: 0px; text-decoration-color: rgb(0, 0, 0); text-decoration-line: none; text-decoration-style: solid; text-indent: 0px; text-orientation: mixed; text-transform: none; --darkreader-inline-color: #e8e6e3; --darkreader-inline-fill: #640101;" d="M3.03 13a1 1 0 0 0-.737.293 1 1 0 0 0 0 1.414l13 13a1 1 0 0 0 1.414 0l13-13a1 1 0 0 0 0-1.414 1 1 0 0 0-1.414 0L16 25.586 3.707 13.293A1 1 0 0 0 3.029 13z" color="#000" fill="#ffffff" class="color000 svgShape" data-darkreader-inline-color="" data-darkreader-inline-fill=""></path><path style="font-feature-settings: normal; font-variant: normal; font-variation-settings: normal; inline-size: 0px; isolation: auto; mix-blend-mode: normal; shape-margin: 0px; text-decoration-color: rgb(0, 0, 0); text-decoration-line: none; text-decoration-style: solid; text-indent: 0px; text-orientation: mixed; text-transform: none; --darkreader-inline-color: #e8e6e3; --darkreader-inline-fill: #640101;" d="M5.03 4a1 1 0 0 0-.737.293 1 1 0 0 0 0 1.414l11 11a1 1 0 0 0 1.414 0l11-11a1 1 0 0 0 0-1.414 1 1 0 0 0-1.414 0L16 14.586 5.707 4.293A1 1 0 0 0 5.029 4z" color="#000" fill="#ffffff" class="color000 svgShape" data-darkreader-inline-color="" data-darkreader-inline-fill=""></path></svg></g></svg>